<svg xmlns="http://www.w3.org/2000/svg" viewBox="0 0 500 500"><g id="freepik--Floor--inject-32"><ellipse id="freepik--floor--inject-32" cx="250.29" cy="361.95" rx="222.46" ry="120.61" style="fill:#fafafa"></ellipse></g><g id="freepik--Shadows--inject-32"><ellipse id="freepik--Shadow--inject-32" cx="389.93" cy="401.6" rx="45.93" ry="26.52" style="fill:#ebebeb"></ellipse><ellipse id="freepik--shadow--inject-32" cx="249.05" cy="336.37" rx="84.66" ry="48.88" style="fill:#ebebeb"></ellipse><ellipse id="freepik--shadow--inject-32" cx="108.79" cy="402" rx="45.21" ry="26.1" style="fill:#ebebeb"></ellipse></g><g id="freepik--Plants--inject-32"><g id="freepik--plants--inject-32"><path d="M315.22,304.6s1.1-9.74,5.95-17.3,11.5-12.28,17.71-12.77,11.23,5.22,4.58,9.15-18.45,7.93-23.88,22.6Z" style="fill:#DB2777"></path><path d="M315.22,304.6s1.1-9.74,5.95-17.3,11.5-12.28,17.71-12.77,11.23,5.22,4.58,9.15-18.45,7.93-23.88,22.6Z" style="opacity:0.15"></path><path d="M317,302.07l-.07,0a.33.33,0,0,1-.18-.43c6.55-16.15,19-22.89,24.72-24.2a.33.33,0,0,1,.15.65c-5.57,1.28-17.8,7.91-24.26,23.8A.33.33,0,0,1,317,302.07Z" style="fill:#fff"></path><path d="M350.22,302.26c-.56,1.27-2,1.93-3.24,2.45s-2.68,1.07-3.38,2.27c-1.4,2.42.9,5.83-.6,8.18a4.35,4.35,0,0,1-3,1.72,28.33,28.33,0,0,1-2.91.26,10.57,10.57,0,0,1-1.39-.11,6.32,6.32,0,0,0-4,.43c-1.93,1.08-2.52,3.51-3.69,5.39a9.13,9.13,0,0,1-6.48,4.06c-2.18.29-4.22,0-4.93-2.43a8.26,8.26,0,0,1-.21-2.53,34.51,34.51,0,0,1,.82-6.48,12.72,12.72,0,0,0,.42-2.94c0-1.12,0-2.23,0-3.35,0-1.8-.2-3.77.56-5.46.84-1.86,2.94-1.91,3.73-3.73.32-.73.49-1.51.79-2.25a6.44,6.44,0,0,1,5.49-3.83c3.66-.19,6.94,2.77,10.6,2.51.94-.08,1.87-.37,2.8-.54,3-.55,6.39.29,8.05,2.8A3.83,3.83,0,0,1,350.22,302.26Z" style="fill:#DB2777"></path><path d="M317.34,320.33h0a.3.3,0,0,1-.22-.38c5-19,25-21.71,29.71-21.37a.31.31,0,0,1,0,.62c-4.57-.33-24.12,2.35-29.07,20.91A.31.31,0,0,1,317.34,320.33Z" style="fill:#fff"></path><path d="M339.55,310.72a.38.38,0,0,1-.17-.08,16.58,16.58,0,0,0-13.6-3.83.31.31,0,0,1-.35-.27.3.3,0,0,1,.26-.35,17.25,17.25,0,0,1,14.14,4,.31.31,0,0,1,0,.44A.3.3,0,0,1,339.55,310.72Z" style="fill:#fff"></path></g><g id="freepik--plants--inject-32"><path d="M93.84,377.2c.17-6-1.51-16.13-7.45-26.22C80,340.18,71.65,333,64.6,335.15c-6.57,2.05-5.12,11,4.75,20.66,6.92,6.81,13.94,15.45,17.14,25.32L92,393.85Z" style="fill:#DB2777"></path><path d="M93.84,377.2c.17-6-1.51-16.13-7.45-26.22C80,340.18,71.65,333,64.6,335.15c-6.57,2.05-5.12,11,4.75,20.66,6.92,6.81,13.94,15.45,17.14,25.32L92,393.85Z" style="fill:#DB2777"></path><g style="opacity:0.15"><path d="M93.84,377.2c.17-6-1.51-16.13-7.45-26.22C80,340.18,71.65,333,64.6,335.15c-6.57,2.05-5.12,11,4.75,20.66,6.92,6.81,13.94,15.45,17.14,25.32L92,393.85Z"></path></g><path d="M92.74,381.69a.41.41,0,0,1-.36-.32C88.15,364.15,77.43,346,67.44,339.24a.43.43,0,1,1,.49-.71c10.13,6.91,21,25.24,25.27,42.63a.43.43,0,0,1-.31.52Z" style="fill:#fff"></path><path d="M93.9,396.72a25.33,25.33,0,0,1-11.73,5.87c-7.51,1.65-11.07-1.77-11.07-1.77s2.56-7.29,6.75-9.55A42.53,42.53,0,0,0,65,397.46s-4.62.34-6.89-6.61c0,0,2.49-4.42,11.56-7.27,0,0-5.69-1.07-13.63,1.47-.59.27-3.72-8.71-4.75-12.88s.67-4.22,3.9-5.3,14.39-2.29,16.56-.6,3.57,7.8,3.57,7.8,1.76-3.62,1.11-6.71a24.28,24.28,0,0,1,8.74.41c8.61,1.92,10.56,6,11.59,10.34C97.73,382.19,98.39,391,93.9,396.72Z" style="fill:#DB2777"></path><path d="M93.93,397.14a.43.43,0,0,1-.4-.21C86.65,384.58,63,371.16,54.78,370.06a.42.42,0,1,1,.11-.84c8.38,1.11,32.4,14.75,39.38,27.29a.41.41,0,0,1-.16.58A.41.41,0,0,1,93.93,397.14Z" style="fill:#fff"></path></g></g><g id="freepik--Confetti--inject-32"><path d="M308.61,35.13c-5-.5-11.84,7.91-6.92,11.95,2.73,2.24,8.7,1.27,8.63-2.93a.54.54,0,0,0-.44-.46c-4-.91-7.88.79-7.21,5.41A8.88,8.88,0,0,0,311,56.39c.24,0,.15-.41,0-.45-3.44-.73-6.7-2.87-7.37-6.56a4.68,4.68,0,0,1,.74-3.81,3.69,3.69,0,0,1,1.8-1.2c.59-.19,2.72-.52,3.18,0,.94,1-1.59,2.59-2.34,2.84a5.33,5.33,0,0,1-4.56-.43c-2.09-1.46-1.57-4.22-.56-6.17,1.36-2.64,3.76-4.79,6.84-4.89.28,0,.14-.53-.08-.55Z" style="fill:#DB2777"></path><path d="M312.27,200.72c1.59-3.57,1.42-7.26,6-8.44,2-.52,6.83-1,8.35.81a2.2,2.2,0,0,1-.4,2.78c-1.2,1.07-2.1-.22-2.41-1.36a5.2,5.2,0,0,1,2.3-5.58,9.26,9.26,0,0,1,12.37,2c.17.21.36,0,.28-.23-3.54-8.14-20.52-2.48-15.07,5.32,1.65,2.36,4.57.28,4-2.22-.61-2.77-5.34-2.63-7.42-2.49a8.61,8.61,0,0,0-5.74,2.2c-1.84,1.82-2.09,4.69-2.48,7.12,0,.11.1.27.17.11Z" style="fill:#DB2777"></path><path d="M426.36,31.8c3.31-1,7.85-.7,10.63,1.54,2.13,1.72,3.36,5.46.2,6.74-1.24.5-5.32.5-5.81-1.19-.34-1.17.92-1.87,1.93-2,3-.45,5.74,2.67,5.67,5.47-.1,4.19-5,5.58-8.43,5.61-.23,0-.17.43,0,.45,5.87.56,12.43-4.88,7.21-10.33-1.41-1.47-3.61-2.52-5.63-1.71-1.15.46-2.05,1.5-1.48,2.74.91,2,4.61,2.34,6.39,1.83a3.58,3.58,0,0,0,2.48-4.61c-1.44-5.31-8.86-6.41-13.27-4.82-.13.05-.08.36.08.31Z" style="fill:#DB2777"></path><path d="M458.93,239.15c3.31-1,7.86-.7,10.64,1.54,2.13,1.71,3.35,5.45.19,6.74-1.23.5-5.32.5-5.81-1.19-.34-1.17.92-1.87,1.93-2,3-.46,5.75,2.67,5.68,5.46-.1,4.2-5,5.58-8.43,5.62-.23,0-.17.42,0,.44,5.87.57,12.42-4.87,7.2-10.33-1.4-1.47-3.6-2.51-5.63-1.7-1.14.46-2.05,1.49-1.48,2.74.92,2,4.61,2.34,6.4,1.82a3.56,3.56,0,0,0,2.47-4.61c-1.44-5.3-8.86-6.41-13.26-4.81-.13,0-.08.35.07.31Z" style="fill:#DB2777"></path><path d="M450.24,87.07c-3.95,1.18-7.61,8.12-3.95,11.28,3.12,2.69,9.41,2.08,8.37-3a.34.34,0,0,0-.22-.26c-4.13-1-5.5,3.84-4.63,7,1.35,5,6.35,4.9,10,2.3.12-.08.06-.42-.11-.34-3,1.48-7.09,2.79-8.89-1-1-2-1-5.35.86-6.9a2.55,2.55,0,0,1,1.78-.7c1.38.16,1.14,1.65.36,2.6-1.23,1.5-3.72,1.35-5.38.76-5.69-2-1.78-9.37,1.92-11.44.11-.07.09-.35-.07-.31Z" style="fill:#DB2777"></path><path d="M474.94,179.44c6.72.54,5.5,13.29.08,15a2.63,2.63,0,0,1-2.06-.11,3,3,0,0,1-1.22-2.59c.65-2.19,4.26.58,4.74,1.43a6.26,6.26,0,0,1-.51,7.33c-2.77,3-8.05,3.15-11.51,1.4-.18-.09-.21.25-.08.33,3.71,2.39,9.95,2,12.7-1.73,2.21-3,.69-11-4.13-10.32-4.48.66-1.38,5.77,2,5.09s4.62-5.18,4.95-8c.41-3.52-.64-8.27-5-8.19-.15,0-.13.31,0,.32Z" style="fill:#DB2777"></path><path d="M362.51,69.74c-4.65-.6-14.66,3.33-12.06,9.67,1.4,3.38,7.6,5.56,9.65,1.68a.47.47,0,0,0-.23-.58C350.16,75,340,90.89,350.25,96.72c.32.19.31-.36.12-.51a8.08,8.08,0,0,1-2-11.38,10.65,10.65,0,0,1,4.32-3.91c1.33-.63,4.66-1.51,5.89-.21.57.6.55-.16.26.55-.18.43-.77.67-1.19.83a4.82,4.82,0,0,1-3.18-.11c-2.19-.75-3.86-2.74-3.29-5.12,1.14-4.77,7.22-6.51,11.47-6.55.3,0,.11-.54-.12-.57Z" style="fill:#DB2777"></path><path d="M381.41,36.25s-.29,5.21,3.59,8.11l4.05-1.23s-2.71-1.3-4.05-6.88Z" style="fill:#455a64"></path><path d="M313.54,148.5s-.28,5.21,3.59,8.11l4.06-1.23s-2.71-1.3-4.06-6.88Z" style="fill:#455a64"></path><path d="M348.57,211.83s-.29,5.21,3.59,8.11l4-1.23s-2.71-1.3-4-6.88Z" style="fill:#37474f"></path><path d="M475.59,52.9s-2.36,4.66-7.16,5.23l-2.9-3.1s3,.23,7-3.92Z" style="fill:#455a64"></path><path d="M447.8,219.37s-2.36,4.66-7.16,5.23l-2.9-3.1s3,.23,7-3.92Z" style="fill:#455a64"></path><path d="M383,136.4s-2.36,4.65-7.17,5.22l-2.89-3.1s3,.23,7-3.92Z" style="fill:#DB2777"></path><path d="M338.35,64.13s-2.37,4.66-7.17,5.23l-2.89-3.1s3,.23,7-3.92Z" style="fill:#455a64"></path><path d="M427.91,71.08s-5.18.64-8.34-3l.95-4.13s1.48,2.61,7.14,3.58Z" style="fill:#DB2777"></path><path d="M352.74,45.69s-5.19.65-8.34-3l1-4.13s1.48,2.62,7.14,3.58Z" style="fill:#DB2777"></path><path d="M268.06,39.8s-5.18.65-8.34-3l1-4.13s1.48,2.62,7.14,3.58Z" style="fill:#DB2777"></path><path d="M310.59,109.91s-5.18.64-8.34-3l1-4.14s1.48,2.62,7.14,3.58Z" style="fill:#DB2777"></path><path d="M469.7,154.14s-5.18.65-8.33-3l.95-4.13s1.48,2.62,7.14,3.58Z" style="fill:#DB2777"></path><path d="M392.4,90.27s-2.36,4.65-7.16,5.22l-2.9-3.1s3.54.55,7.5-3.6Z" style="fill:#455a64"></path><path d="M397.62,97.14s-.93,5.14-5.36,7.07l-3.67-2.14a13.46,13.46,0,0,0,6.15-5.61Z" style="fill:#37474f"></path><path d="M217.9,44.27c5-.5,11.84,7.9,6.91,11.95-2.73,2.24-8.7,1.27-8.63-2.93a.54.54,0,0,1,.44-.47c4-.9,7.88.8,7.21,5.42a8.88,8.88,0,0,1-8.32,7.29c-.24,0-.16-.41,0-.45,3.45-.73,6.7-2.87,7.38-6.56a4.72,4.72,0,0,0-.75-3.81,3.64,3.64,0,0,0-1.8-1.2c-.59-.19-2.71-.53-3.18,0-.94,1,1.6,2.59,2.35,2.85a5.35,5.35,0,0,0,4.55-.43c2.09-1.46,1.57-4.22.56-6.18-1.36-2.63-3.76-4.78-6.84-4.88-.28,0-.13-.53.09-.55Z" style="fill:#DB2777"></path><path d="M188,183.72c-1.58-3.57-1.42-7.26-6-8.44-2-.52-6.82-1-8.35.81a2.2,2.2,0,0,0,.4,2.78c1.2,1.07,2.1-.22,2.41-1.36a5.2,5.2,0,0,0-2.3-5.58,9.26,9.26,0,0,0-12.37,2c-.17.21-.36,0-.28-.23C165,165.54,182,171.2,176.57,179c-1.65,2.36-4.57.28-4-2.22.61-2.77,5.34-2.63,7.42-2.49a8.61,8.61,0,0,1,5.74,2.2c1.85,1.82,2.09,4.69,2.48,7.12,0,.11-.1.27-.17.11Z" style="fill:#DB2777"></path><path d="M77.93,31.8c-3.3-1-7.85-.7-10.63,1.54-2.13,1.72-3.36,5.46-.2,6.74,1.24.5,5.32.5,5.81-1.19.34-1.17-.92-1.87-1.93-2-3-.45-5.74,2.67-5.67,5.47.1,4.19,5,5.58,8.43,5.61.23,0,.17.43,0,.45-5.87.56-12.43-4.88-7.21-10.33,1.41-1.47,3.61-2.52,5.63-1.71,1.15.46,2.05,1.5,1.48,2.74-.91,2-4.6,2.34-6.39,1.83a3.58,3.58,0,0,1-2.48-4.61C66.18,31,73.61,29.9,78,31.49c.13.05.08.36-.08.31Z" style="fill:#DB2777"></path><path d="M40.33,253c-3.31-1-7.86-.7-10.63,1.54-2.14,1.72-3.36,5.46-.2,6.74,1.23.5,5.32.5,5.81-1.19.34-1.17-.92-1.87-1.93-2-3-.45-5.74,2.67-5.68,5.47.1,4.19,5,5.58,8.43,5.61.23,0,.17.43,0,.45-5.88.56-12.43-4.88-7.21-10.33,1.41-1.47,3.6-2.52,5.63-1.71,1.14.46,2,1.5,1.48,2.74-.92,2-4.61,2.34-6.4,1.83a3.57,3.57,0,0,1-2.47-4.61c1.44-5.31,8.86-6.41,13.26-4.82.13.05.08.36-.07.31Z" style="fill:#DB2777"></path><path d="M44.91,89.07c4,1.18,7.62,8.12,4,11.28-3.12,2.69-9.41,2.07-8.37-3a.34.34,0,0,1,.22-.26c4.13-1,5.5,3.84,4.63,7-1.35,5-6.35,4.89-10,2.3-.11-.08-.06-.42.11-.34,2.95,1.48,7.09,2.79,8.89-1,1-2,1-5.35-.86-6.91a2.59,2.59,0,0,0-1.78-.69c-1.38.16-1.14,1.65-.36,2.6,1.24,1.5,3.73,1.34,5.38.76,5.69-2,1.78-9.38-1.92-11.44-.11-.07-.09-.35.07-.31Z" style="fill:#DB2777"></path><path d="M19,181.32c-6.72.54-5.51,13.29-.08,15a2.61,2.61,0,0,0,2.05-.11,3,3,0,0,0,1.22-2.59c-.64-2.2-4.25.58-4.73,1.43a6.25,6.25,0,0,0,.51,7.33c2.77,3,8,3.15,11.5,1.4.18-.09.21.25.09.33-3.72,2.39-9.95,2-12.7-1.73-2.21-3-.69-11,4.12-10.32,4.49.66,1.39,5.77-2,5.09s-4.62-5.19-5-8c-.41-3.52.64-8.27,5-8.19.14,0,.13.31,0,.32Z" style="fill:#DB2777"></path><path d="M141.78,69.74c4.65-.6,14.66,3.33,12.06,9.67-1.39,3.38-7.6,5.56-9.64,1.68a.45.45,0,0,1,.22-.58c9.71-5.49,19.92,10.38,9.63,16.21-.33.19-.32-.36-.12-.51a8.09,8.09,0,0,0,2-11.38,10.65,10.65,0,0,0-4.32-3.91c-1.33-.63-4.66-1.51-5.89-.21-.57.6-.55-.16-.26.55.18.43.77.67,1.19.83a4.85,4.85,0,0,0,3.19-.11c2.18-.75,3.85-2.74,3.28-5.12-1.14-4.77-7.22-6.51-11.47-6.55-.3,0-.11-.54.12-.57Z" style="fill:#DB2777"></path><path d="M122.88,36.25s.29,5.21-3.59,8.11l-4.05-1.23s2.71-1.3,4.05-6.88Z" style="fill:#455a64"></path><path d="M181.63,137.5s.29,5.21-3.58,8.11L174,144.38s2.71-1.3,4.06-6.88Z" style="fill:#455a64"></path><path d="M167.42,221.55s.29,5.21-3.59,8.11l-4.06-1.23s2.72-1.3,4.06-6.88Z" style="fill:#37474f"></path><path d="M28.7,52.9s2.36,4.66,7.16,5.23l2.9-3.1s-3,.23-7-3.92Z" style="fill:#455a64"></path><path d="M51.46,230.54s2.36,4.65,7.16,5.22l2.9-3.1s-3,.23-7-3.92Z" style="fill:#455a64"></path><path d="M121.31,136.4s2.36,4.65,7.17,5.22l2.89-3.1s-3,.23-7-3.92Z" style="fill:#DB2777"></path><path d="M190.74,77.69s2.36,4.65,7.16,5.22l2.9-3.1s-3,.23-7-3.92Z" style="fill:#455a64"></path><path d="M76.39,71.08s5.18.64,8.33-3l-1-4.13s-1.48,2.61-7.14,3.58Z" style="fill:#DB2777"></path><path d="M160.76,39.89s5.18.64,8.34-3l-.95-4.13s-1.49,2.61-7.15,3.58Z" style="fill:#DB2777"></path><path d="M165,111.94s5.18.64,8.34-3l-1-4.13s-1.48,2.61-7.14,3.58Z" style="fill:#DB2777"></path><path d="M23.55,152.77s5.18.64,8.34-3l-.95-4.14s-1.49,2.62-7.14,3.58Z" style="fill:#DB2777"></path><path d="M111.89,90.27s2.36,4.65,7.17,5.22l2.89-3.1s-3.54.55-7.5-3.6Z" style="fill:#455a64"></path><path d="M106.67,97.14s.93,5.14,5.36,7.07l3.67-2.14a13.46,13.46,0,0,1-6.15-5.61Z" style="fill:#37474f"></path><path d="M281.87,67.32s-2.36,4.66-7.16,5.23l-2.9-3.1s3.55.54,7.51-3.61Z" style="fill:#455a64"></path><path d="M251.64,79.74s-.93,5.13-5.36,7.06l-3.67-2.13a13.45,13.45,0,0,0,6.15-5.62Z" style="fill:#37474f"></path></g><g id="freepik--Cake--inject-32"><path d="M325.8,255.53H172.3l9.83,76.06h0c1.13,9,7.6,17.72,19.45,24.56,26.2,15.13,68.69,15.13,94.9,0,11.85-6.84,18.32-15.61,19.45-24.56h0Z" style="fill:#b16668"></path><path d="M177.4,295l.32,2.49c0,.09,0,.17.05.25l-.39-3A1.79,1.79,0,0,1,177.4,295Z" style="fill:#9a4a4d;opacity:0.954545"></path><path d="M323,277.55v0l.4-3.11Z" style="fill:#9a4a4d;opacity:0.954545"></path><path d="M301.78,302.42c-29.12,16.82-76.34,16.82-105.47,0-12.1-7-19.14-15.78-21.17-24.87l.33,2.55a.09.09,0,0,1,0,0l.54,4.22c1.94,9.05,8.91,17.82,20.95,24.77,28.76,16.6,75.39,16.6,104.15,0,12-7,19-15.72,20.95-24.77l.55-4.23v0l.33-2.55C320.92,286.64,313.88,295.44,301.78,302.42Z" style="fill:#9a4a4d"></path><path d="M175.14,277.53v0l-.48-3.72Z" style="fill:#9a4a4d;opacity:0.954545"></path><path d="M181.61,327.61c2.71,7.1,8.89,13.86,18.6,19.38,27,15.34,70.7,15.34,97.68,0,9.7-5.52,15.89-12.28,18.6-19.38l.89-6.91c-2.76,7.17-9,14-18.82,19.57-27.35,15.55-71.68,15.55-99,0-9.81-5.57-16.06-12.4-18.82-19.57Z" style="fill:#9a4a4d"></path><path d="M299.8,322.57c-28,16.18-73.48,16.18-101.51,0-12-6.94-18.84-15.74-20.52-24.79l.56,4.39c0,.18,0,.37.07.55l.21,1.65c1.51,9.09,8.28,17.95,20.35,24.91,27.66,16,72.51,16,100.18,0,12.06-7,18.83-15.82,20.35-24.91l.21-1.64c0-.19.05-.37.06-.56l.57-4.39C318.65,306.83,311.82,315.63,299.8,322.57Z" style="fill:#9a4a4d"></path><path d="M320.33,297.78c0-.09,0-.17,0-.25l.32-2.49,0-.23Z" style="fill:#9a4a4d;opacity:0.954545"></path><path d="M169.77,255.08l7.76,60.71a5.63,5.63,0,0,0,5.59,4.92h0a5.63,5.63,0,0,0,5.61-6.11l-.29-3.42a5.06,5.06,0,0,1,5-5.48h0a5.06,5.06,0,0,1,5,4.39l.11.83a6.79,6.79,0,0,0,6.73,5.89h0a6.79,6.79,0,0,0,6.78-7.19l-.14-2.38a3.71,3.71,0,0,1,3.71-3.93h0a3.71,3.71,0,0,1,3.7,3.42l1,16.53a7.12,7.12,0,0,0,7.11,6.58h0a7.12,7.12,0,0,0,7.13-7.17l-.05-8.5a4.32,4.32,0,0,1,4.31-4.34h0a4.32,4.32,0,0,1,4.31,4.18l.06,24.77a5.83,5.83,0,0,0,5.83,5.65h0a5.83,5.83,0,0,0,5.83-5.65l.05-24.35a4.75,4.75,0,0,1,4.74-4.6h0a4.75,4.75,0,0,1,4.75,4.8l0,3.35a7.78,7.78,0,0,0,7.77,7.85h0a7.79,7.79,0,0,0,7.76-7.2l.32-8.48a4.81,4.81,0,0,1,4.8-4.45h0a4.81,4.81,0,0,1,4.8,5.05L289,327a6.45,6.45,0,0,0,6.45,6.78h0A6.45,6.45,0,0,0,301.9,328l2.4-23.89a3.61,3.61,0,0,1,3.6-3.26h0a3.62,3.62,0,0,1,3.61,3.86l-.64,9.4a5,5,0,0,0,5,5.34h0a5,5,0,0,0,4.93-4.38l7.5-60Z" style="fill:#f28f8f"></path><path d="M169.77,255.08l7.76,60.71a5.63,5.63,0,0,0,5.59,4.92h0a5.63,5.63,0,0,0,5.61-6.11l-.29-3.42a5.06,5.06,0,0,1,5-5.48h0a5.06,5.06,0,0,1,5,4.39l.11.83a6.79,6.79,0,0,0,6.73,5.89h0a6.79,6.79,0,0,0,6.78-7.19l-.14-2.38a3.71,3.71,0,0,1,3.71-3.93h0a3.71,3.71,0,0,1,3.7,3.42l1,16.53a7.12,7.12,0,0,0,7.11,6.58h0a7.12,7.12,0,0,0,7.13-7.17l-.05-8.5a4.32,4.32,0,0,1,4.31-4.34h0a4.32,4.32,0,0,1,4.31,4.18l.06,24.77a5.83,5.83,0,0,0,5.83,5.65h0a5.83,5.83,0,0,0,5.83-5.65l.05-24.35a4.75,4.75,0,0,1,4.74-4.6h0a4.75,4.75,0,0,1,4.75,4.8l0,3.35a7.78,7.78,0,0,0,7.77,7.85h0a7.79,7.79,0,0,0,7.76-7.2l.32-8.48a4.81,4.81,0,0,1,4.8-4.45h0a4.81,4.81,0,0,1,4.8,5.05L289,327a6.45,6.45,0,0,0,6.45,6.78h0A6.45,6.45,0,0,0,301.9,328l2.4-23.89a3.61,3.61,0,0,1,3.6-3.26h0a3.62,3.62,0,0,1,3.61,3.86l-.64,9.4a5,5,0,0,0,5,5.34h0a5,5,0,0,0,4.93-4.38l7.5-60Z" style="fill:#e0e0e0"></path><path d="M192.73,218.17c-31.1,18-31.1,47.07,0,65s81.53,18,112.63,0,31.1-47.07,0-65S223.84,200.21,192.73,218.17Z" style="fill:#f28f8f"></path><path d="M192.73,218.17c-31.1,18-31.1,47.07,0,65s81.53,18,112.63,0,31.1-47.07,0-65S223.84,200.21,192.73,218.17Z" style="fill:#ebebeb"></path><path d="M304.32,186H193.78l7.08,54.77h0c.82,6.44,5.48,12.76,14,17.68,18.87,10.9,49.46,10.9,68.34,0,8.53-4.92,13.19-11.24,14-17.68h0Z" style="fill:#b16668"></path><path d="M197.46,214.41l.23,1.79,0,.18-.28-2.13A1,1,0,0,0,197.46,214.41Z" style="fill:#9a4a4d;opacity:0.954545"></path><path d="M302.27,201.81h0l.29-2.24Z" style="fill:#9a4a4d;opacity:0.954545"></path><path d="M287,219.72c-21,12.11-55,12.11-75.95,0-8.71-5-13.78-11.36-15.24-17.9l.24,1.83v0l.39,3c1.4,6.52,6.42,12.83,15.09,17.84,20.71,12,54.29,12,75,0,8.67-5,13.69-11.32,15.08-17.84l.4-3v0l.24-1.84C300.81,208.36,295.74,214.69,287,219.72Z" style="fill:#9a4a4d"></path><path d="M195.83,201.8v0l-.35-2.69Z" style="fill:#9a4a4d;opacity:0.954545"></path><path d="M200.49,237.87c1.95,5.11,6.4,10,13.39,13.95,19.42,11,50.91,11,70.34,0,7-4,11.44-8.84,13.39-14l.64-5c-2,5.16-6.49,10.08-13.55,14.09-19.69,11.2-51.62,11.2-71.31,0-7.06-4-11.56-8.93-13.55-14.09Z" style="fill:#9a4a4d"></path><path d="M285.6,234.23c-20.19,11.66-52.92,11.66-73.1,0-8.66-5-13.57-11.33-14.78-17.85l.41,3.16c0,.14,0,.27,0,.4l.15,1.19c1.1,6.54,6,12.92,14.66,17.94,19.92,11.5,52.22,11.5,72.14,0,8.69-5,13.56-11.4,14.65-17.94l.16-1.19c0-.13,0-.26,0-.4l.41-3.16C299.17,222.9,294.25,229.23,285.6,234.23Z" style="fill:#9a4a4d"></path><path d="M300.38,216.38l0-.18.23-1.79c0-.06,0-.11,0-.16Z" style="fill:#9a4a4d;opacity:0.954545"></path><path d="M192,185.63l5.59,43.72a4.06,4.06,0,0,0,4,3.54h0a4.05,4.05,0,0,0,4-4.4L205.4,226a3.64,3.64,0,0,1,3.63-3.94h0a3.64,3.64,0,0,1,3.61,3.16l.08.59a4.89,4.89,0,0,0,4.85,4.25h0a4.9,4.9,0,0,0,4.88-5.18l-.1-1.71a2.68,2.68,0,0,1,2.67-2.84h0a2.67,2.67,0,0,1,2.66,2.47l.7,11.9a5.14,5.14,0,0,0,5.12,4.74h0a5.14,5.14,0,0,0,5.14-5.17l0-6.12a3.1,3.1,0,0,1,3.1-3.12h0a3.1,3.1,0,0,1,3.1,3l0,17.84a4.2,4.2,0,0,0,4.2,4.06h0a4.19,4.19,0,0,0,4.19-4.06l0-17.54a3.42,3.42,0,0,1,3.42-3.31h0a3.42,3.42,0,0,1,3.42,3.45l0,2.42a5.59,5.59,0,0,0,5.59,5.65h0a5.61,5.61,0,0,0,5.59-5.18l.23-6.11a3.45,3.45,0,0,1,3.46-3.2h0a3.46,3.46,0,0,1,3.46,3.63l-.59,11.71a4.65,4.65,0,0,0,4.64,4.89h0a4.65,4.65,0,0,0,4.63-4.19l1.73-17.21a2.6,2.6,0,0,1,2.59-2.34h0a2.6,2.6,0,0,1,2.59,2.78l-.45,6.77a3.6,3.6,0,0,0,3.62,3.85h0a3.62,3.62,0,0,0,3.55-3.16l5.4-43.19Z" style="fill:#f28f8f"></path><path d="M192,185.63l5.59,43.72a4.06,4.06,0,0,0,4,3.54h0a4.05,4.05,0,0,0,4-4.4L205.4,226a3.64,3.64,0,0,1,3.63-3.94h0a3.64,3.64,0,0,1,3.61,3.16l.08.59a4.89,4.89,0,0,0,4.85,4.25h0a4.9,4.9,0,0,0,4.88-5.18l-.1-1.71a2.68,2.68,0,0,1,2.67-2.84h0a2.67,2.67,0,0,1,2.66,2.47l.7,11.9a5.14,5.14,0,0,0,5.12,4.74h0a5.14,5.14,0,0,0,5.14-5.17l0-6.12a3.1,3.1,0,0,1,3.1-3.12h0a3.1,3.1,0,0,1,3.1,3l0,17.84a4.2,4.2,0,0,0,4.2,4.06h0a4.19,4.19,0,0,0,4.19-4.06l0-17.54a3.42,3.42,0,0,1,3.42-3.31h0a3.42,3.42,0,0,1,3.42,3.45l0,2.42a5.59,5.59,0,0,0,5.59,5.65h0a5.61,5.61,0,0,0,5.59-5.18l.23-6.11a3.45,3.45,0,0,1,3.46-3.2h0a3.46,3.46,0,0,1,3.46,3.63l-.59,11.71a4.65,4.65,0,0,0,4.64,4.89h0a4.65,4.65,0,0,0,4.63-4.19l1.73-17.21a2.6,2.6,0,0,1,2.59-2.34h0a2.6,2.6,0,0,1,2.59,2.78l-.45,6.77a3.6,3.6,0,0,0,3.62,3.85h0a3.62,3.62,0,0,0,3.55-3.16l5.4-43.19Z" style="fill:#e0e0e0"></path><path d="M208.5,159.05c-22.4,12.93-22.4,33.9,0,46.83s58.7,12.93,81.1,0,22.4-33.9,0-46.83S230.89,146.12,208.5,159.05Z" style="fill:#f28f8f"></path><path d="M208.5,159.05c-22.4,12.93-22.4,33.9,0,46.83s58.7,12.93,81.1,0,22.4-33.9,0-46.83S230.89,146.12,208.5,159.05Z" style="fill:#ebebeb"></path><path d="M238.74,277.73c-5.69,3.28-5.69,8.61,0,11.9s14.92,3.28,20.62,0,5.69-8.62,0-11.9S244.43,274.44,238.74,277.73Z" style="fill:#e0e0e0"></path><path d="M257.63,271.87c-2.48-6.18-6.15-12.25-8.58-12.25s-6.1,6.07-8.58,12.26c-1.75,4.34-2.92,8.74-2.65,11.13.22,3.36,5.16,6.05,11.23,6.05s11-2.68,11.23-6C260.55,280.64,259.39,276.23,257.63,271.87Z" style="fill:#DB2777"></path><path d="M257.63,271.87c-2.48-6.18-6.15-12.25-8.58-12.25s-6.1,6.07-8.58,12.26c-1.75,4.34-2.92,8.74-2.65,11.13.22,3.36,5.16,6.05,11.23,6.05s11-2.68,11.23-6C260.55,280.64,259.39,276.23,257.63,271.87Z" style="opacity:0.1"></path><path d="M249.05,289.06c6,0,11-2.68,11.23-6,.27-2.39-.89-6.8-2.65-11.16A47,47,0,0,0,253,263s7.09,14.47,0,19.39c-5.74,4-15.14,1.85-14.61-4.1a15,15,0,0,0-.55,4.75C238,286.37,243,289.06,249.05,289.06Z" style="opacity:0.12"></path><path d="M301.64,239c-5.69,3.28-5.69,8.61,0,11.9s14.92,3.28,20.61,0,5.7-8.62,0-11.9S307.33,235.66,301.64,239Z" style="fill:#e0e0e0"></path><path d="M320.53,233.09c-2.49-6.18-6.16-12.25-8.59-12.25s-6.09,6.07-8.58,12.26c-1.75,4.34-2.91,8.74-2.64,11.13.22,3.36,5.16,6.05,11.22,6.05s11-2.68,11.23-6C323.45,241.86,322.28,237.45,320.53,233.09Z" style="fill:#DB2777"></path><path d="M320.53,233.09c-2.49-6.18-6.16-12.25-8.59-12.25s-6.09,6.07-8.58,12.26c-1.75,4.34-2.91,8.74-2.64,11.13.22,3.36,5.16,6.05,11.22,6.05s11-2.68,11.23-6C323.45,241.86,322.28,237.45,320.53,233.09Z" style="opacity:0.1"></path><path d="M311.94,250.28c6.06,0,11-2.68,11.23-6,.28-2.39-.89-6.8-2.64-11.16a47,47,0,0,0-4.63-8.9s7.09,14.47,0,19.39c-5.74,4-15.14,1.85-14.61-4.1a14.75,14.75,0,0,0-.55,4.75C300.94,247.59,305.88,250.28,311.94,250.28Z" style="opacity:0.12"></path><path d="M175.87,239c-5.69,3.28-5.69,8.61,0,11.9s14.92,3.28,20.61,0,5.7-8.62,0-11.9S181.56,235.66,175.87,239Z" style="fill:#e0e0e0"></path><path d="M194.76,233.09c-2.49-6.18-6.16-12.25-8.58-12.25s-6.1,6.07-8.59,12.26c-1.75,4.34-2.91,8.74-2.64,11.13.22,3.36,5.16,6.05,11.23,6.05s11-2.68,11.22-6C197.68,241.86,196.51,237.45,194.76,233.09Z" style="fill:#DB2777"></path><path d="M194.76,233.09c-2.49-6.18-6.16-12.25-8.58-12.25s-6.1,6.07-8.59,12.26c-1.75,4.34-2.91,8.74-2.64,11.13.22,3.36,5.16,6.05,11.23,6.05s11-2.68,11.22-6C197.68,241.86,196.51,237.45,194.76,233.09Z" style="opacity:0.1"></path><path d="M186.18,250.28c6,0,11-2.68,11.22-6,.28-2.39-.89-6.8-2.64-11.16a47,47,0,0,0-4.63-8.9s7.09,14.47,0,19.39c-5.74,4-15.14,1.85-14.61-4.1a14.75,14.75,0,0,0-.55,4.75C175.17,247.59,180.11,250.28,186.18,250.28Z" style="opacity:0.12"></path><path d="M195.23,267.24c-5.69,3.28-5.69,8.61,0,11.9s14.92,3.28,20.62,0,5.69-8.62,0-11.9S200.92,264,195.23,267.24Z" style="fill:#e0e0e0"></path><path d="M214.12,261.38c-2.48-6.18-6.15-12.25-8.58-12.25s-6.1,6.07-8.58,12.26c-1.75,4.34-2.92,8.74-2.65,11.13.22,3.36,5.16,6.05,11.23,6.05s11-2.68,11.23-6C217,270.15,215.88,265.74,214.12,261.38Z" style="fill:#DB2777"></path><path d="M214.12,261.38c-2.48-6.18-6.15-12.25-8.58-12.25s-6.1,6.07-8.58,12.26c-1.75,4.34-2.92,8.74-2.65,11.13.22,3.36,5.16,6.05,11.23,6.05s11-2.68,11.23-6C217,270.15,215.88,265.74,214.12,261.38Z" style="opacity:0.1"></path><path d="M205.54,278.57c6.05,0,11-2.68,11.23-6,.27-2.39-.89-6.8-2.65-11.16a46.43,46.43,0,0,0-4.63-8.9s7.09,14.47,0,19.39c-5.74,4-15.14,1.85-14.61-4.1a15,15,0,0,0-.55,4.75C194.53,275.88,199.47,278.57,205.54,278.57Z" style="opacity:0.12"></path><path d="M283.92,267.24c-5.69,3.28-5.69,8.61,0,11.9s14.92,3.28,20.61,0,5.69-8.62,0-11.9S289.61,264,283.92,267.24Z" style="fill:#e0e0e0"></path><path d="M302.81,261.38c-2.49-6.18-6.16-12.25-8.59-12.25s-6.09,6.07-8.58,12.26c-1.75,4.34-2.91,8.74-2.64,11.13.22,3.36,5.16,6.05,11.22,6.05s11-2.68,11.23-6C305.72,270.15,304.56,265.74,302.81,261.38Z" style="fill:#DB2777"></path><path d="M302.81,261.38c-2.49-6.18-6.16-12.25-8.59-12.25s-6.09,6.07-8.58,12.26c-1.75,4.34-2.91,8.74-2.64,11.13.22,3.36,5.16,6.05,11.22,6.05s11-2.68,11.23-6C305.72,270.15,304.56,265.74,302.81,261.38Z" style="opacity:0.1"></path><path d="M294.22,278.57c6.06,0,11-2.68,11.23-6,.27-2.39-.89-6.8-2.64-11.16a47,47,0,0,0-4.63-8.9s7.09,14.47,0,19.39c-5.73,4-15.13,1.85-14.6-4.1a14.75,14.75,0,0,0-.55,4.75C283.22,275.88,288.16,278.57,294.22,278.57Z" style="opacity:0.12"></path><path d="M249.13,123.81c2.3,0,3.82-1.49,3.82-4.19s-3.82-9.12-3.82-9.12-3.82,6.43-3.82,9.12S246.83,123.81,249.13,123.81Z" style="fill:#DB2777"></path><path d="M249.13,123.81c2.3,0,3.82-1.49,3.82-4.19s-3.82-9.12-3.82-9.12-3.82,6.43-3.82,9.12S246.83,123.81,249.13,123.81Z" style="fill:#fff;opacity:0.5"></path><path d="M249.13,122.59a1.87,1.87,0,0,0,1.93-2.12c0-1.36-1.93-4.61-1.93-4.61s-1.93,3.25-1.93,4.61A1.87,1.87,0,0,0,249.13,122.59Z" style="fill:#fff;opacity:0.5"></path><path d="M253.34,165a1.91,1.91,0,0,1-1.11,1.81,6.72,6.72,0,0,1-6.08,0c-.85-.5-1.4-1.14-1.4-1.78h0v-37.1l8.59.12Z" style="fill:#DB2777"></path><path d="M248.61,167.52a5.48,5.48,0,0,1-2.46-.71c-.85-.5-1.4-1.14-1.4-1.78h0v-37.1l3.86,0Z" style="opacity:0.1"></path><path d="M252.11,129.78a6.75,6.75,0,0,1-6.08,0c-1.69-1-1.71-2.55,0-3.51a6.73,6.73,0,0,1,6.07,0C253.75,127.25,253.77,128.82,252.11,129.78Z" style="fill:#DB2777"></path><path d="M252.11,129.78a6.75,6.75,0,0,1-6.08,0c-1.69-1-1.71-2.55,0-3.51a6.73,6.73,0,0,1,6.07,0C253.75,127.25,253.77,128.82,252.11,129.78Z" style="fill:#fff;opacity:0.5"></path><path d="M249.13,128.53a.59.59,0,0,1-.59-.6v-6.61a.59.59,0,0,1,.59-.6.6.6,0,0,1,.6.6v6.61A.6.6,0,0,1,249.13,128.53Z" style="fill:#455a64"></path><path d="M279.06,130.44c2.3,0,3.82-1.49,3.82-4.18s-3.82-9.13-3.82-9.13-3.83,6.43-3.83,9.13S276.75,130.44,279.06,130.44Z" style="fill:#DB2777"></path><path d="M279.06,130.44c2.3,0,3.82-1.49,3.82-4.18s-3.82-9.13-3.82-9.13-3.83,6.43-3.83,9.13S276.75,130.44,279.06,130.44Z" style="fill:#fff;opacity:0.5"></path><path d="M279.06,129.22a1.87,1.87,0,0,0,1.93-2.11c0-1.37-1.93-4.62-1.93-4.62s-1.93,3.25-1.93,4.62A1.86,1.86,0,0,0,279.06,129.22Z" style="fill:#fff;opacity:0.5"></path><path d="M283.26,171.66a1.9,1.9,0,0,1-1.11,1.81,6.7,6.7,0,0,1-6.07,0,2.33,2.33,0,0,1-1.4-1.78h0V134.57l8.58.11Z" style="fill:#DB2777"></path><path d="M278.54,174.16a5.58,5.58,0,0,1-2.46-.72,2.33,2.33,0,0,1-1.4-1.78h0V134.57l3.86.05Z" style="opacity:0.1"></path><path d="M282,136.41a6.7,6.7,0,0,1-6.07,0c-1.69-1-1.71-2.54,0-3.5a6.72,6.72,0,0,1,6.08,0C283.68,133.88,283.7,135.45,282,136.41Z" style="fill:#DB2777"></path><path d="M282,136.41a6.7,6.7,0,0,1-6.07,0c-1.69-1-1.71-2.54,0-3.5a6.72,6.72,0,0,1,6.08,0C283.68,133.88,283.7,135.45,282,136.41Z" style="fill:#fff;opacity:0.5"></path><path d="M279.06,135.16a.59.59,0,0,1-.6-.59V128a.6.6,0,0,1,.6-.6.59.59,0,0,1,.59.6v6.62A.58.58,0,0,1,279.06,135.16Z" style="fill:#455a64"></path><path d="M263.22,165.65c2.3,0,3.83-1.5,3.83-4.19s-3.83-9.12-3.83-9.12-3.82,6.43-3.82,9.12S260.92,165.65,263.22,165.65Z" style="fill:#DB2777"></path><path d="M263.22,165.65c2.3,0,3.83-1.5,3.83-4.19s-3.83-9.12-3.83-9.12-3.82,6.43-3.82,9.12S260.92,165.65,263.22,165.65Z" style="fill:#fff;opacity:0.5"></path><path d="M263.22,164.42a1.86,1.86,0,0,0,1.93-2.11c0-1.36-1.93-4.61-1.93-4.61s-1.93,3.25-1.93,4.61A1.87,1.87,0,0,0,263.22,164.42Z" style="fill:#fff;opacity:0.5"></path><path d="M267.43,206.87a1.89,1.89,0,0,1-1.11,1.8,6.75,6.75,0,0,1-6.08,0c-.85-.5-1.4-1.14-1.39-1.79h0V169.77l8.58.12Z" style="fill:#DB2777"></path><path d="M262.7,209.36a5.74,5.74,0,0,1-2.46-.71c-.85-.5-1.4-1.14-1.39-1.79h0V169.77l3.85,0Z" style="opacity:0.1"></path><path d="M266.2,171.61a6.7,6.7,0,0,1-6.07,0c-1.69-1-1.72-2.54-.05-3.5a6.7,6.7,0,0,1,6.07,0C267.84,169.08,267.86,170.65,266.2,171.61Z" style="fill:#DB2777"></path><path d="M266.2,171.61a6.7,6.7,0,0,1-6.07,0c-1.69-1-1.72-2.54-.05-3.5a6.7,6.7,0,0,1,6.07,0C267.84,169.08,267.86,170.65,266.2,171.61Z" style="fill:#fff;opacity:0.5"></path><path d="M263.22,170.36a.58.58,0,0,1-.59-.59v-6.62a.58.58,0,0,1,.59-.59.59.59,0,0,1,.6.59v6.62A.59.59,0,0,1,263.22,170.36Z" style="fill:#455a64"></path><path d="M295.46,148.57c2.3,0,3.82-1.5,3.82-4.19s-3.82-9.12-3.82-9.12-3.82,6.43-3.82,9.12S293.16,148.57,295.46,148.57Z" style="fill:#DB2777"></path><path d="M295.46,148.57c2.3,0,3.82-1.5,3.82-4.19s-3.82-9.12-3.82-9.12-3.82,6.43-3.82,9.12S293.16,148.57,295.46,148.57Z" style="fill:#fff;opacity:0.5"></path><path d="M295.46,147.34a1.86,1.86,0,0,0,1.93-2.11c0-1.37-1.93-4.61-1.93-4.61s-1.93,3.24-1.93,4.61A1.87,1.87,0,0,0,295.46,147.34Z" style="fill:#fff;opacity:0.5"></path><path d="M299.67,189.78a1.9,1.9,0,0,1-1.11,1.81,6.72,6.72,0,0,1-6.08,0,2.35,2.35,0,0,1-1.4-1.78h0V152.69l8.59.12Z" style="fill:#DB2777"></path><path d="M294.94,192.28a5.61,5.61,0,0,1-2.46-.72,2.35,2.35,0,0,1-1.4-1.78h0V152.69l3.86.05Z" style="opacity:0.1"></path><path d="M298.44,154.53a6.7,6.7,0,0,1-6.07,0c-1.69-1-1.72-2.54-.05-3.5a6.7,6.7,0,0,1,6.07,0C300.08,152,300.1,153.57,298.44,154.53Z" style="fill:#DB2777"></path><path d="M298.44,154.53a6.7,6.7,0,0,1-6.07,0c-1.69-1-1.72-2.54-.05-3.5a6.7,6.7,0,0,1,6.07,0C300.08,152,300.1,153.57,298.44,154.53Z" style="fill:#fff;opacity:0.5"></path><path d="M295.46,153.28a.58.58,0,0,1-.59-.59v-6.62a.58.58,0,0,1,.59-.59.59.59,0,0,1,.6.59v6.62A.59.59,0,0,1,295.46,153.28Z" style="fill:#455a64"></path><path d="M219.21,130.44c-2.31,0-3.83-1.49-3.83-4.18s3.83-9.13,3.83-9.13,3.82,6.43,3.82,9.13S221.51,130.44,219.21,130.44Z" style="fill:#DB2777"></path><path d="M219.21,130.44c-2.31,0-3.83-1.49-3.83-4.18s3.83-9.13,3.83-9.13,3.82,6.43,3.82,9.13S221.51,130.44,219.21,130.44Z" style="fill:#fff;opacity:0.5"></path><path d="M219.21,129.22a1.87,1.87,0,0,1-1.94-2.11c0-1.37,1.94-4.62,1.94-4.62s1.93,3.25,1.93,4.62A1.87,1.87,0,0,1,219.21,129.22Z" style="fill:#fff;opacity:0.5"></path><path d="M215,171.66a1.9,1.9,0,0,0,1.11,1.81,6.7,6.7,0,0,0,6.07,0c.86-.49,1.41-1.14,1.4-1.78h0V134.57l-8.58.11Z" style="fill:#DB2777"></path><path d="M219.73,174.16a5.57,5.57,0,0,0,2.45-.72c.86-.49,1.41-1.14,1.4-1.78h0V134.57l-3.85.05Z" style="opacity:0.1"></path><path d="M216.23,136.41a6.7,6.7,0,0,0,6.07,0c1.69-1,1.71-2.54,0-3.5a6.72,6.72,0,0,0-6.08,0C214.58,133.88,214.56,135.45,216.23,136.41Z" style="fill:#DB2777"></path><path d="M216.23,136.41a6.7,6.7,0,0,0,6.07,0c1.69-1,1.71-2.54,0-3.5a6.72,6.72,0,0,0-6.08,0C214.58,133.88,214.56,135.45,216.23,136.41Z" style="fill:#fff;opacity:0.5"></path><path d="M219.21,135.16a.59.59,0,0,0,.59-.59V128a.6.6,0,1,0-1.19,0v6.62A.59.59,0,0,0,219.21,135.16Z" style="fill:#455a64"></path><path d="M235,165.65c-2.3,0-3.82-1.5-3.82-4.19s3.82-9.12,3.82-9.12,3.82,6.43,3.82,9.12S237.34,165.65,235,165.65Z" style="fill:#DB2777"></path><path d="M235,165.65c-2.3,0-3.82-1.5-3.82-4.19s3.82-9.12,3.82-9.12,3.82,6.43,3.82,9.12S237.34,165.65,235,165.65Z" style="fill:#fff;opacity:0.5"></path><path d="M235,164.42a1.87,1.87,0,0,1-1.93-2.11c0-1.36,1.93-4.61,1.93-4.61S237,161,237,162.31A1.87,1.87,0,0,1,235,164.42Z" style="fill:#fff;opacity:0.5"></path><path d="M230.83,206.87a1.91,1.91,0,0,0,1.11,1.8,6.75,6.75,0,0,0,6.08,0,2.34,2.34,0,0,0,1.4-1.79h0V169.77l-8.59.12Z" style="fill:#DB2777"></path><path d="M235.56,209.36a5.7,5.7,0,0,0,2.46-.71,2.34,2.34,0,0,0,1.4-1.79h0V169.77l-3.86,0Z" style="opacity:0.1"></path><path d="M232.06,171.61a6.72,6.72,0,0,0,6.08,0c1.69-1,1.71-2.54,0-3.5a6.7,6.7,0,0,0-6.07,0C230.42,169.08,230.4,170.65,232.06,171.61Z" style="fill:#DB2777"></path><path d="M232.06,171.61a6.72,6.72,0,0,0,6.08,0c1.69-1,1.71-2.54,0-3.5a6.7,6.7,0,0,0-6.07,0C230.42,169.08,230.4,170.65,232.06,171.61Z" style="fill:#fff;opacity:0.5"></path><path d="M235,170.36a.59.59,0,0,0,.6-.59v-6.62a.6.6,0,0,0-1.2,0v6.62A.59.59,0,0,0,235,170.36Z" style="fill:#455a64"></path><path d="M202.8,148.57c-2.3,0-3.82-1.5-3.82-4.19s3.82-9.12,3.82-9.12,3.82,6.43,3.82,9.12S205.1,148.57,202.8,148.57Z" style="fill:#DB2777"></path><path d="M202.8,148.57c-2.3,0-3.82-1.5-3.82-4.19s3.82-9.12,3.82-9.12,3.82,6.43,3.82,9.12S205.1,148.57,202.8,148.57Z" style="fill:#fff;opacity:0.5"></path><path d="M202.8,147.34a1.87,1.87,0,0,1-1.93-2.11c0-1.37,1.93-4.61,1.93-4.61s1.93,3.24,1.93,4.61A1.87,1.87,0,0,1,202.8,147.34Z" style="fill:#fff;opacity:0.5"></path><path d="M198.59,189.78a1.92,1.92,0,0,0,1.12,1.81,6.7,6.7,0,0,0,6.07,0,2.33,2.33,0,0,0,1.4-1.78h0V152.69l-8.59.12Z" style="fill:#DB2777"></path><path d="M203.32,192.28a5.58,5.58,0,0,0,2.46-.72,2.33,2.33,0,0,0,1.4-1.78h0V152.69l-3.86.05Z" style="opacity:0.1"></path><path d="M199.82,154.53a6.72,6.72,0,0,0,6.08,0c1.69-1,1.71-2.54,0-3.5a6.7,6.7,0,0,0-6.07,0C198.18,152,198.16,153.57,199.82,154.53Z" style="fill:#DB2777"></path><path d="M199.82,154.53a6.72,6.72,0,0,0,6.08,0c1.69-1,1.71-2.54,0-3.5a6.7,6.7,0,0,0-6.07,0C198.18,152,198.16,153.57,199.82,154.53Z" style="fill:#fff;opacity:0.5"></path><path d="M202.8,153.28a.59.59,0,0,0,.6-.59v-6.62a.6.6,0,0,0-1.2,0v6.62A.59.59,0,0,0,202.8,153.28Z" style="fill:#455a64"></path></g><g id="freepik--character-2--inject-32"><path d="M359.21,187.3c7.05,16.6,16.67,26.48,21.11,37.14,5.81-.4,12.66-13.36,8.33-19.37,0,0-18.94-20.2-20.48-27.44-1.37-6.42-4.33-16.66-4.17-22.09a3.75,3.75,0,0,1,1-2.41c1.79-1.92,1.79-3.46,2.94-5.58.89-1.66,1.87-2.27,1.59-2.65a2.15,2.15,0,0,0-2.9-.21,10.67,10.67,0,0,0-2.19,2.11,22,22,0,0,1,1.74-5.86c2-4.47,1.5-6.75-4.53-5.16-3.78,1-6.15,4.15-6.72,13.23a90.41,90.41,0,0,0-.06,11.34c.65,7,1.37,13.68,2.23,19.47A30.33,30.33,0,0,0,359.21,187.3Z" style="fill:#b16668"></path><path d="M417.07,389.61a43.59,43.59,0,0,1,.69,7.2c.08,4.37.89,5.93,1,9.51.13,4.11-.58,5.64-2.25,7.94s-6,4.4-7.87.51-1.61-6.45-1-10.48.69-6.45,1-9.62c.31-2.8.68-4.92.68-4.92Z" style="fill:#263238"></path><path d="M383.49,382.12s.75.05.86.65.17,1.87.47,3.05a17.17,17.17,0,0,1,.52,5.7c-.25,1.35-3.32,3.35-5.41,3.7s-5.06,2.42-6.7,4a16.12,16.12,0,0,1-9.31,3.66c-3.5,0-5.94-1.17-7.1-3s1.06-2.1,5.05-4.69l3.11-2c6.34-4.14,8.65-6.36,10.45-10.49Z" style="fill:#263238"></path><path d="M419.44,340.21c-1-10.55-3.76-15.26-4-17.66,0,0,6.94-50.73.19-65.49l-39-3.94c-1.86,9.73-6.21,55.22-5.1,70,.65,8.77,3.79,55.9,3.8,56v.77c-.11,3-.63,4.15-2,5.66-2.89,3.17-7.84,6.81-11.48,9.58.54,1.4,4.8,1.11,7.1.32,3.56-1.21,6.6-4,7.78-4.86,3-2.27,6.82-4.1,6.83-7.49a2.53,2.53,0,0,0-.07-.74,18.88,18.88,0,0,1-.1-3.08c.51-12.08,7.09-36.57,6.39-43.85a64.29,64.29,0,0,0-2.36-10.67l7.44-34.53s2.62,23.78,4,34.59c1.54,12.18,10,59.81,10.28,61.35.12,1.41.19,2.64.18,3.6,0,1.38-.71,14.81-.38,17.95s6.56,3.85,7.53-1.4c.64-3.5.55-15,.59-16.69,0-1.1.09-2.31.15-3.6C417.23,385.87,420.65,352.64,419.44,340.21Z" style="fill:#b16668"></path><path d="M394.89,290.21l-2.2-13.71s-9.28-1.92-13.49-5.88c0,0,4.42,5.49,11,7.29l2.46,10.56-4.31,32Z" style="fill:#9a4a4d"></path><path d="M379.2,243.67c-.14-2.43-.78-7.23-.76-8.44-6.06-5.8-4.26-12-2-16.61,4.57-9.15,8.93-14.33,13-14.13l11,1c6,.78,10.12,1.51,11.58,1.85,3.7.86,3.56,3.54,3.72,7.48.19,4.32.3,5.49-.79,12.63l-6,9.36-.17,7s19.9,16.16,30.55,34.26c0,0-6.44,20.44-39.91,22.35-36.72,2.09-44.17-17.3-44.17-17.3A135.05,135.05,0,0,1,379.2,243.67Z" style="fill:#DB2777"></path><path d="M408.92,236.77s-20.73,5.18-30.48-1.54l.76,8.44s12.34,7.19,29.55.12Z" style="opacity:0.30000000000000004"></path><path d="M404.68,238.85a29.76,29.76,0,0,0,4.34-6.7c1-2.54-.46-4.77-1.62-8.73a20.56,20.56,0,0,1,.31-13.19l2.57-1.92,5.11,2.75a26.57,26.57,0,0,1,.35,3.72c.19,4.32.3,5.49-.79,12.63l-6,9.36-.17,7s19.9,16.16,30.55,34.26c0,0-5.47,17.3-32.43,21.54,1-.41,16.2-7,17.45-19.58,1.29-13.05-15.1-29.11-18.36-32.08C402.21,244.52,403.1,240.42,404.68,238.85Z" style="opacity:0.1"></path><path d="M436.28,190.07c-7,16.61-15.67,26.73-21.33,37.34-5.82-.39-10.12-14.63-5.79-20.63,0,0,16.62-19.14,18.16-26.37,1.37-6.43,4.33-16.67,4.17-22.1a3.7,3.7,0,0,0-1-2.4c-1.79-1.93-1.79-3.47-2.94-5.59-.89-1.65-1.87-2.27-1.59-2.64a2.14,2.14,0,0,1,2.9-.22,11.2,11.2,0,0,1,2.19,2.11,22,22,0,0,0-1.74-5.86c-2-4.47-1.5-6.74,4.53-5.15,3.78,1,6.15,4.14,6.72,13.22a90.41,90.41,0,0,1,.06,11.34c-.65,7-1.37,13.68-2.23,19.47A30.33,30.33,0,0,1,436.28,190.07Z" style="fill:#b16668"></path><path d="M376.46,202.44h19.2a18.54,18.54,0,0,0,18.55-18.55V180a19.59,19.59,0,0,0-19.59-19.58h0a18.16,18.16,0,0,0-18.16,18.16Z" style="fill:#263238"></path><path d="M382.72,171c-1,.51-3.59,5.5-3.33,16.41.21,9.24,3.21,11.52,4.71,12.18s4.41.26,7.23-.21v5.55s-3.9,4.89-4.63,10.07c-.36,2.53,4.05,5.72,11.62-1.31a19.44,19.44,0,0,0,4.62-7.3V193s1.9,2.54,5,.47,3.23-7.18,1.42-9-5.71-1.26-6.44,1.28c0,0-4.57.81-10.7-3.14C385.62,178.31,383.59,174.91,382.72,171Z" style="fill:#b16668"></path><path d="M381.21,181.33l2.59-1.23a1.38,1.38,0,0,0-1.87-.71A1.51,1.51,0,0,0,381.21,181.33Z" style="fill:#263238"></path><path d="M391.9,180.51l2.42,1.53a1.38,1.38,0,0,0-.39-2A1.51,1.51,0,0,0,391.9,180.51Z" style="fill:#263238"></path><path d="M403.05,183.15l-.16,5.66a2.74,2.74,0,0,1-2.81-2.81A3,3,0,0,1,403.05,183.15Z" style="fill:#263238"></path><path d="M390.74,184.72a1.16,1.16,0,1,0,2.32.11,1.17,1.17,0,0,0-1.1-1.26A1.19,1.19,0,0,0,390.74,184.72Z" style="fill:#263238"></path><path d="M389.4,192.91l-2.7.86a1.39,1.39,0,0,0,1.75,1A1.49,1.49,0,0,0,389.4,192.91Z" style="fill:#9a4a4d"></path><path d="M381.75,184.23a1.17,1.17,0,1,0,1.23-1.15A1.2,1.2,0,0,0,381.75,184.23Z" style="fill:#263238"></path><polygon points="387.43 183.57 387.25 190.56 383.56 189.42 387.43 183.57" style="fill:#9a4a4d"></polygon><path d="M391.33,199.37c3-.39,9.09-2.15,10-4.57a6.31,6.31,0,0,1-2.14,3.09c-1.83,1.57-7.9,3.33-7.9,3.33Z" style="fill:#9a4a4d"></path><path d="M384.9,163.26c1.9,9.81,20.06,15.42,28.31,10.58l-2.77-38.4Z" style="fill:#DB2777"></path><path d="M412.41,173.24a1.62,1.62,0,0,0,.34.84c.15-.08.31-.15.46-.24l-.15-2.07A1.64,1.64,0,0,0,412.41,173.24Z" style="fill:#fff"></path><path d="M395.86,156.75a1.64,1.64,0,1,0-1.8-1.47A1.65,1.65,0,0,0,395.86,156.75Z" style="fill:#fff"></path><path d="M412.33,161.59l-.23-3.11a1.63,1.63,0,0,0-1,1.68,1.65,1.65,0,0,0,.59,1.11,2,2,0,0,0,.56.3Z" style="fill:#fff"></path><path d="M405.81,140.87a1.66,1.66,0,0,0,1.81,1.47,1.65,1.65,0,0,0,.31-3.21,1.7,1.7,0,0,0-.31-.06h-.34l-.21.05-1.24,1.34A1.88,1.88,0,0,0,405.81,140.87Z" style="fill:#fff"></path><path d="M409.75,147.08a1.64,1.64,0,0,0,.86,1.28,1.56,1.56,0,0,0,.61.19h.17l-.24-3.26A1.64,1.64,0,0,0,409.75,147.08Z" style="fill:#fff"></path><path d="M409.83,155.05a1.64,1.64,0,0,0,.58-1.1,1.22,1.22,0,0,0,0-.33,1.55,1.55,0,0,0-.19-.62,1.59,1.59,0,0,0-.18-.27,1.68,1.68,0,0,0-.78-.52,1.74,1.74,0,0,0-.65-.06,1.64,1.64,0,0,0-1.4,1.15,1.59,1.59,0,0,0-.07.65,1.76,1.76,0,0,0,.07.33,1.3,1.3,0,0,0,.13.3,1.68,1.68,0,0,0,.4.48,1.6,1.6,0,0,0,1.2.36A1.62,1.62,0,0,0,409.83,155.05Z" style="fill:#fff"></path><path d="M386.06,164.23a1.78,1.78,0,0,0,.65.06,1.14,1.14,0,0,0,.33-.07,1.88,1.88,0,0,0,.3-.12,1.68,1.68,0,0,0,.84-1.61,1.64,1.64,0,0,0-1.26-1.43L385,163.15A1.64,1.64,0,0,0,386.06,164.23Z" style="fill:#fff"></path><path d="M390.65,170.5a1.65,1.65,0,1,0-1.27-.42l.13.1A1.63,1.63,0,0,0,390.65,170.5Z" style="fill:#fff"></path><path d="M410.27,168.5a1.64,1.64,0,0,0-.33-3.27,1.66,1.66,0,0,0-1.47,1.81A1.63,1.63,0,0,0,410.27,168.5Z" style="fill:#fff"></path><path d="M403.73,169.17a1.64,1.64,0,1,0-1.8-1.47A1.64,1.64,0,0,0,403.73,169.17Z" style="fill:#fff"></path><path d="M406.34,162.3a1.65,1.65,0,1,0-1.8-1.47,1.62,1.62,0,0,0,.86,1.28,1.74,1.74,0,0,0,.61.19Z" style="fill:#fff"></path><path d="M402.6,174.24a1.66,1.66,0,0,0-1.81-1.47,1.67,1.67,0,0,0-.62.2l-.26.17a1.71,1.71,0,0,0-.52.78,1.78,1.78,0,0,0-.07.65,2.13,2.13,0,0,0,.07.27,26.67,26.67,0,0,0,2.89.54A1.65,1.65,0,0,0,402.6,174.24Z" style="fill:#fff"></path><path d="M405.93,174.24a1.66,1.66,0,0,0,.31.55,1.46,1.46,0,0,0,.49.4,1.56,1.56,0,0,0,.61.19h.33a1.65,1.65,0,0,0,1.47-1.47,1.82,1.82,0,0,0,0-.33,1.62,1.62,0,0,0-.6-1.11,1.6,1.6,0,0,0-1.2-.36,1.63,1.63,0,0,0-1.47,1.8A1.91,1.91,0,0,0,405.93,174.24Z" style="fill:#fff"></path><path d="M397.82,149.81a1.55,1.55,0,0,0,.65.07,1.65,1.65,0,0,0,1.47-1.8,1.67,1.67,0,0,0-.34-.83l-2.16,2.36A1.38,1.38,0,0,0,397.82,149.81Z" style="fill:#fff"></path><path d="M395.58,169a1.51,1.51,0,0,0,.18.26,1.66,1.66,0,0,0,.78.52,1.59,1.59,0,0,0,.65.06,1.64,1.64,0,0,0,1.41-1.15,1.74,1.74,0,0,0,.06-.65,1.14,1.14,0,0,0-.07-.32,1.34,1.34,0,0,0-.12-.3,1.76,1.76,0,0,0-.41-.49,1.67,1.67,0,0,0-1.2-.36,1.66,1.66,0,0,0-1.28,2.43Z" style="fill:#fff"></path><path d="M394.13,160.72a1.64,1.64,0,0,0-2.68,1.44,1.64,1.64,0,0,0,1.81,1.46,1.62,1.62,0,0,0,1.4-1.15c0-.1,0-.21.07-.31a1.3,1.3,0,0,0,0-.34A1.61,1.61,0,0,0,394.13,160.72Z" style="fill:#fff"></path><path d="M399.8,163a1.14,1.14,0,0,0,.32-.07,1.59,1.59,0,0,0,.56-.3,1.72,1.72,0,0,0,.4-.49,1.74,1.74,0,0,0,.19-.61,1.82,1.82,0,0,0,0-.33,1.66,1.66,0,0,0-.6-1.11,1.77,1.77,0,0,0-.56-.3,1.74,1.74,0,0,0-.65-.06,1.64,1.64,0,0,0,.34,3.27Z" style="fill:#fff"></path><path d="M402.4,156.09a1.65,1.65,0,0,0,1.47-1.81,1.64,1.64,0,1,0-1.47,1.81Z" style="fill:#fff"></path><path d="M406.48,147.41a1.65,1.65,0,0,0-3.21-.32,1.77,1.77,0,0,0-.06.65,1.62,1.62,0,0,0,.86,1.29,1.58,1.58,0,0,0,.94.18A1.65,1.65,0,0,0,406.48,147.41Z" style="fill:#fff"></path><path d="M414.49,124.22l-1.63-1.2c-1,1.48-.9,4-.13,7.12s-2.29,5.3-2.29,5.3l.06.75a5.71,5.71,0,0,0,3.36-3.1c1.06-2-.28-4.5-.21-6.33A3.67,3.67,0,0,1,414.49,124.22Z" style="fill:#DB2777"></path><path d="M410.44,135.44s3,.93,4.81-.93,1.26-3.19,1.64-4.9a3.83,3.83,0,0,1,3.39-2.87l.33,1.59s-1.92.65-2.19,2.19c-.32,1.77-1,4.47-2.89,5.44a6.34,6.34,0,0,1-5,.23Z" style="fill:#DB2777"></path><path d="M410.44,135.44s3,.93,4.81-.93,1.26-3.19,1.64-4.9a3.83,3.83,0,0,1,3.39-2.87l.33,1.59s-1.92.65-2.19,2.19c-.32,1.77-1,4.47-2.89,5.44a6.34,6.34,0,0,1-5,.23Z" style="opacity:0.1"></path><path d="M410.44,135.44a10.53,10.53,0,0,0,4.21,2.25c2.58.58,4.1-.87,5.3-1.92,1.44-1.27,2.42-1.53,3.3-1.43v1.58a5.94,5.94,0,0,0-3.25,1.62,5.93,5.93,0,0,1-6.13,1,8.7,8.7,0,0,1-3.37-2.32Z" style="fill:#DB2777"></path><path d="M410.44,135.44a10.53,10.53,0,0,0,4.21,2.25c2.58.58,4.1-.87,5.3-1.92,1.44-1.27,2.42-1.53,3.3-1.43v1.58a5.94,5.94,0,0,0-3.25,1.62,5.93,5.93,0,0,1-6.13,1,8.7,8.7,0,0,1-3.37-2.32Z" style="opacity:0.2"></path></g><g id="freepik--character-1--inject-32"><path d="M146.48,200.69c-1.49,3.37-19.13,27-23.37,32.62-11-5.33-2.91-18.21-2.91-18.21s12.74-18.59,14.8-21.73a7.14,7.14,0,0,0,1-2.62c.32-1.7,2.14-22.6,1.42-29a4.65,4.65,0,0,0-1.55-2.92c-2.27-2-3-3.85-4.58-6.19-1.23-1.83-2.44-2.44-2.16-2.91a2.51,2.51,0,0,1,3.36-.57,17.42,17.42,0,0,1,3.28,2.58,23.19,23.19,0,0,0-2.6-7c-2.81-5-2.5-7.71,4.72-6.53,4.52.75,8.8,4.49,10.47,15a92.59,92.59,0,0,1,.45,11.47c.09,8.88-.24,22.9-.7,29C147.85,196.87,148,197.31,146.48,200.69Z" style="fill:#ffa8a7"></path><path d="M113.18,212.26c3.93-.39,17.37-13.79,17.37-13.79,3.58,0,11.9,9.54,10,13.18-5.61,8.42-12.61,16.15-14.67,21.66-1.64,3.07-5.51.22-6.92-6.46C117,217.55,110,212.58,113.18,212.26Z" style="fill:#DB2777"></path><path d="M113.18,212.26c3.93-.39,17.37-13.79,17.37-13.79,3.58,0,11.9,9.54,10,13.18-5.61,8.42-12.61,16.15-14.67,21.66-1.64,3.07-5.51.22-6.92-6.46C117,217.55,110,212.58,113.18,212.26Z" style="opacity:0.30000000000000004"></path><rect x="88.41" y="388.12" width="8.73" height="14.95" transform="translate(185.55 791.2) rotate(180)" style="fill:#ffa8a7"></rect><path d="M97.14,398.76v-1.25c.84.37,2.78,7.78,6.25,10.94,2.75,2.51,6.51,5.41,7.46,8.21s-5.23,4.53-7.8,4.07c-3-.53-8.18-2.64-9.48-4.59s-1.91-4.83-3-6.26-3.49-3-4.06-4.68c-.32-.91.06-2.91.5-4.59s.84-3.24,1.37-3.1v1a6.88,6.88,0,0,0,4.36,1.47C94.05,400,97.15,399.74,97.14,398.76Z" style="fill:#263238"></path><polygon points="112.58 391.89 121.31 392.19 121.74 376.36 112.58 376.06 112.58 391.89" style="fill:#ffa8a7"></polygon><path d="M121.4,389.49c.45,0,.82.66,1.82,1.74a19.18,19.18,0,0,0,5.14,3.7c3.27,1.64,9.63,4.16,12.51,5.45,1.8.81,1.71,3-.15,4.22s-6.34,2.12-11.73.92c-2.93-.66-6.76-3.37-9.17-3.22s-6.95.11-8.73-1.12-1.07-3.86-.57-6.12c.55-2.46,1.24-6.3,2.06-6.13v.85c1,1.59,6.47,2.23,8.77,1.06Z" style="fill:#263238"></path><path d="M84.69,276.47c0,8.34,1.47,56.86,1.47,56.86-.2,2.4-2.51,6.66-2.69,15.31-.26,12.54,4.23,44.5,4.23,44.5a9.65,9.65,0,0,0,9.77,1.6s4.25-45.61,5.82-58c1.36-10.83,3.68-40.25,3.68-40.25l4.11,35.35A49.66,49.66,0,0,0,110,345.71c.41,5.74,1.93,39.16,1.93,39.16s5.23,2.33,9.81.77c0,0,6.53-48.55,6.63-53.82.12-6-2.28-67.29-2.28-67.29Z" style="fill:#455a64"></path><path d="M107,296.47a32.42,32.42,0,0,0,12.16-7s-2.35,4.39-9.32,8.48l.93,30.87Z" style="fill:#263238"></path><path d="M79.32,199.72c-.85-.49-5,1.32-7.57,4.67s-3,8.17-2.27,9.21,10.76-3,10.76-3Z" style="fill:#DB2777"></path><path d="M79.32,199.72c-.85-.49-5,1.32-7.57,4.67s-3,8.17-2.27,9.21,10.76-3,10.76-3Z" style="opacity:0.6000000000000001"></path><path d="M83.46,227.4l1.48,16.76-.25,32.31c12.53,6.61,28.47,7,41.85-2.71,0,0-.75-41.6-.75-48.4,0-.31,0-.62,0-.94-.36-7.12-5.71-12.68-12.35-12.78-7-.11-16.06.45-16.06.45l-7.75,1.68S83.46,224.06,83.46,227.4Z" style="fill:#f5f5f5"></path><path d="M63,201.62c1.49,3.38,19.13,27,23.37,32.63,11-5.34,2.91-18.21,2.91-18.21s-12.74-18.59-14.8-21.73a7.14,7.14,0,0,1-1-2.62c-.32-1.7-2.14-22.6-1.42-29a4.65,4.65,0,0,1,1.55-2.92c2.27-2,3-3.85,4.58-6.19,1.23-1.83,2.44-2.44,2.16-2.91a2.51,2.51,0,0,0-3.36-.57,17.42,17.42,0,0,0-3.28,2.58,23.19,23.19,0,0,1,2.6-7c2.81-5,2.5-7.71-4.72-6.53-4.52.74-8.8,4.49-10.47,15a92.76,92.76,0,0,0-.45,11.48c-.09,8.88.24,22.9.7,29C61.66,197.81,61.53,198.25,63,201.62Z" style="fill:#ffa8a7"></path><path d="M90.76,213.41,79.32,199.72s.7,11.15-9.84,13.88L84,234c1.64,3.07,6.74-.58,8.15-7.25C94.16,217.4,90.76,213.41,90.76,213.41Z" style="fill:#DB2777"></path><path d="M90.76,213.41,79.32,199.72s.7,11.15-9.84,13.88L84,234c1.64,3.07,6.74-.58,8.15-7.25C94.16,217.4,90.76,213.41,90.76,213.41Z" style="opacity:0.30000000000000004"></path><circle cx="112.85" cy="183.28" r="12" transform="translate(-61.55 57.14) rotate(-22.5)" style="fill:#263238"></circle><path d="M92.1,191.82s2,9.14,2.73,10.64a4.15,4.15,0,0,0,2.39,1.93L97.08,198Z" style="fill:#263238"></path><path d="M94.54,178.64a3.49,3.49,0,0,0-3.46,1.06c-1.6,1.64-1,7,1,12l3.67.43Z" style="fill:#263238"></path><path d="M96.87,192.24c-.74.44-1.79-1-2.69-1.92s-3.87-2.24-5.34.87,1.3,7.35,3.63,8.08c4,1.26,4.61-1.31,4.61-1.31l.3,14.86h0c5,6.4,17.8,8.82,13.07-.77v-4.4a25,25,0,0,0,5.41.27c3-.45,4.8-2.78,5.7-6,1.44-5.13,2-9.27.76-19.36-1.33-11.06-14.2-11.18-21.15-6.8S96.87,192.24,96.87,192.24Z" style="fill:#ffa8a7"></path><path d="M96.87,193.48c-.37,0-1.78-2.33-2.69-3.16-1.27-1.15.36-11.59.36-11.59a5,5,0,0,1,1.23-5.28c1.73-1.91,3.62-3.12,8.63-3.39a99.26,99.26,0,0,1,10.25.48c4.94.34,6.77-.88,9.61-1.68,2.17-.61,2.41,7.24-3.07,9.83,0,0-1.79,1.16-6.49,1.73a69.29,69.29,0,0,1-13-.25c-1.37-.18-1.66,1.14-2.39,4.75C98.64,188.08,98.11,193.45,96.87,193.48Z" style="fill:#263238"></path><path d="M110.44,207.65s-6.59-1.33-8.9-2.56a7.57,7.57,0,0,1-3.18-3.15,10.33,10.33,0,0,0,1.81,3.72c1.68,2.15,10.27,3.74,10.27,3.74Z" style="fill:#f28f8f"></path><path d="M110.11,190.6a1.32,1.32,0,1,1-1.32-1.38A1.35,1.35,0,0,1,110.11,190.6Z" style="fill:#263238"></path><path d="M108.71,185.61l-2.82,1.56a1.69,1.69,0,0,1,.66-2.25A1.57,1.57,0,0,1,108.71,185.61Z" style="fill:#263238"></path><path d="M109.84,199.72l3,1.13a1.57,1.57,0,0,1-2,1A1.67,1.67,0,0,1,109.84,199.72Z" style="fill:#f28f8f"></path><path d="M121.5,186.71l-2.57-2a1.57,1.57,0,0,1,2.24-.35A1.71,1.71,0,0,1,121.5,186.71Z" style="fill:#263238"></path><path d="M120.71,190.22a1.32,1.32,0,1,1-1.32-1.38A1.36,1.36,0,0,1,120.71,190.22Z" style="fill:#263238"></path><polygon points="113.98 188.97 114.42 196.91 118.56 195.49 113.98 188.97" style="fill:#f28f8f"></polygon><polygon points="108.41 220.41 109.93 231.02 113.48 230.95 109.48 231.58 108.41 220.41" style="opacity:0.1"></polygon><path d="M97.32,209.51a19.15,19.15,0,0,0,5.19,6.5,12.57,12.57,0,0,0,6.35,2.4,16.12,16.12,0,0,0-4.51,5.24c-1.32,2.92-10.64-5.11-10.56-10.8,0,0,1.47-5.72,3.47-6.08Z" style="fill:#455a64"></path><path d="M108.86,218.41s2.87-1.42,1.58-6.2v-4.56l1.27.16a11,11,0,0,1,3,5.25c.29,1.31,1,7.93-.26,9.24S111.43,218.77,108.86,218.41Z" style="fill:#455a64"></path><path d="M118.23,170.52c-1.87,9.66-19.75,15.18-27.87,10.41l2.73-37.79Z" style="fill:#DB2777"></path><path d="M91.16,180.35a1.67,1.67,0,0,1-.34.82c-.15-.08-.31-.15-.46-.24l.15-2A1.64,1.64,0,0,1,91.16,180.35Z" style="fill:#fff"></path><path d="M107.44,164.11a1.62,1.62,0,0,1,.33-3.22,1.62,1.62,0,1,1-.33,3.22Z" style="fill:#fff"></path><path d="M91.23,168.87l.22-3.06a1.6,1.6,0,0,1,1,1.66,1.57,1.57,0,0,1-.58,1.09,1.61,1.61,0,0,1-.55.29Z" style="fill:#fff"></path><path d="M97.65,148.48a1.62,1.62,0,1,1-2.09-1.71,1.7,1.7,0,0,1,.31-.06,1.82,1.82,0,0,1,.33,0l.21,0,1.22,1.32A1.76,1.76,0,0,1,97.65,148.48Z" style="fill:#fff"></path><path d="M93.77,154.59a1.63,1.63,0,0,1-.84,1.27,1.81,1.81,0,0,1-.6.18h-.17l.23-3.21A1.61,1.61,0,0,1,93.77,154.59Z" style="fill:#fff"></path><path d="M93.69,162.44a1.6,1.6,0,0,1-.57-1.08,1.82,1.82,0,0,1,0-.33,1.56,1.56,0,0,1,.19-.61,2.33,2.33,0,0,1,.17-.26,1.61,1.61,0,0,1,.77-.51,1.52,1.52,0,0,1,.64-.06,1.62,1.62,0,0,1,1.39,1.13,1.7,1.7,0,0,1,.06.64,1.65,1.65,0,0,1-.07.32,1.48,1.48,0,0,1-.12.29,1.56,1.56,0,0,1-.4.48,1.6,1.6,0,0,1-1.19.35A1.58,1.58,0,0,1,93.69,162.44Z" style="fill:#fff"></path><path d="M117.09,171.47a1.54,1.54,0,0,1-.64.06,1.65,1.65,0,0,1-.32-.06,1.36,1.36,0,0,1-.3-.13,1.61,1.61,0,0,1-.47-.39,1.56,1.56,0,0,1-.36-1.19,1.62,1.62,0,0,1,1.24-1.41l1.9,2.06A1.63,1.63,0,0,1,117.09,171.47Z" style="fill:#fff"></path><path d="M112.57,177.65a1.62,1.62,0,1,1,1.78-1.45,1.64,1.64,0,0,1-.53,1l-.13.1A1.61,1.61,0,0,1,112.57,177.65Z" style="fill:#fff"></path><path d="M93.26,175.68A1.62,1.62,0,1,1,95,174.24,1.62,1.62,0,0,1,93.26,175.68Z" style="fill:#fff"></path><path d="M99.69,176.34a1.63,1.63,0,0,1-1.44-1.78,1.62,1.62,0,0,1,3.22.33A1.63,1.63,0,0,1,99.69,176.34Z" style="fill:#fff"></path><path d="M97.13,169.57a1.65,1.65,0,1,1,.33,0A1.82,1.82,0,0,1,97.13,169.57Z" style="fill:#fff"></path><path d="M100.81,181.33a1.63,1.63,0,0,1,1.78-1.45,1.74,1.74,0,0,1,.61.19,1.51,1.51,0,0,1,.26.18,1.61,1.61,0,0,1,.51.77,1.51,1.51,0,0,1,.06.64,2.44,2.44,0,0,1-.06.26c-1,.23-1.9.41-2.84.54A1.66,1.66,0,0,1,100.81,181.33Z" style="fill:#fff"></path><path d="M97.53,181.32a1.62,1.62,0,0,1-.3.55,1.83,1.83,0,0,1-.48.4,1.74,1.74,0,0,1-.6.18,1.82,1.82,0,0,1-.33,0A1.63,1.63,0,0,1,94.37,181a1.71,1.71,0,0,1,0-.32,1.62,1.62,0,0,1,.59-1.09,1.56,1.56,0,0,1,1.19-.36A1.61,1.61,0,0,1,97.59,181,1.65,1.65,0,0,1,97.53,181.32Z" style="fill:#fff"></path><path d="M105.52,157.28a1.52,1.52,0,0,1-.64.07,1.63,1.63,0,0,1-1.45-1.78,1.57,1.57,0,0,1,.33-.81l2.13,2.32A1.33,1.33,0,0,1,105.52,157.28Z" style="fill:#fff"></path><path d="M107.72,176.16a1.51,1.51,0,0,1-.18.26,1.61,1.61,0,0,1-.77.51,1.68,1.68,0,0,1-.64.06,1.63,1.63,0,0,1-1.38-1.13,1.52,1.52,0,0,1-.06-.64,1.65,1.65,0,0,1,.06-.32,2.71,2.71,0,0,1,.13-.3,1.61,1.61,0,0,1,.39-.47,1.67,1.67,0,0,1,1.19-.36,1.63,1.63,0,0,1,1.45,1.78A1.81,1.81,0,0,1,107.72,176.16Z" style="fill:#fff"></path><path d="M109.15,168a1.59,1.59,0,0,1,1.18-.36,1.62,1.62,0,1,1-1.71,2.09,1.65,1.65,0,0,1-.06-.32,1.71,1.71,0,0,1,0-.32A1.62,1.62,0,0,1,109.15,168Z" style="fill:#fff"></path><path d="M103.57,170.23l-.32-.07a1.55,1.55,0,0,1-.55-.3,1.5,1.5,0,0,1-.39-.48,1.56,1.56,0,0,1-.19-.6,1.82,1.82,0,0,1,0-.33,1.64,1.64,0,0,1,.59-1.09,1.61,1.61,0,0,1,.55-.29,1.51,1.51,0,0,1,.64-.06,1.62,1.62,0,0,1-.33,3.22Z" style="fill:#fff"></path><path d="M101,163.46a1.62,1.62,0,1,1,1.78-1.45A1.61,1.61,0,0,1,101,163.46Z" style="fill:#fff"></path><path d="M97,154.92a1.62,1.62,0,0,1,3.16-.31,1.55,1.55,0,0,1,.06.31,1.82,1.82,0,0,1,0,.33,1.62,1.62,0,0,1-.84,1.26,1.56,1.56,0,0,1-.93.18A1.62,1.62,0,0,1,97,154.92Z" style="fill:#fff"></path><path d="M89.1,132.09l1.61-1.18c1,1.46.89,4,.13,7s2.25,5.23,2.25,5.23l0,.74a5.64,5.64,0,0,1-3.31-3c-1-2,.27-4.44.2-6.24A3.59,3.59,0,0,0,89.1,132.09Z" style="fill:#DB2777"></path><path d="M93.09,143.14s-3,.91-4.73-.92-1.24-3.14-1.62-4.83a3.74,3.74,0,0,0-3.33-2.81l-.33,1.56s1.89.64,2.16,2.15c.31,1.75,1,4.41,2.85,5.36a6.28,6.28,0,0,0,5,.23Z" style="fill:#DB2777"></path><path d="M93.09,143.14s-3,.91-4.73-.92-1.24-3.14-1.62-4.83a3.74,3.74,0,0,0-3.33-2.81l-.33,1.56s1.89.64,2.16,2.15c.31,1.75,1,4.41,2.85,5.36a6.28,6.28,0,0,0,5,.23Z" style="opacity:0.1"></path><path d="M93.09,143.14A10.36,10.36,0,0,1,89,145.35c-2.54.57-4-.86-5.22-1.89-1.42-1.25-2.38-1.5-3.24-1.41v1.56a5.85,5.85,0,0,1,3.19,1.59,5.86,5.86,0,0,0,6,1A8.7,8.7,0,0,0,93,143.88Z" style="fill:#DB2777"></path><path d="M93.09,143.14A10.36,10.36,0,0,1,89,145.35c-2.54.57-4-.86-5.22-1.89-1.42-1.25-2.38-1.5-3.24-1.41v1.56a5.85,5.85,0,0,1,3.19,1.59,5.86,5.86,0,0,0,6,1A8.7,8.7,0,0,0,93,143.88Z" style="opacity:0.2"></path></g></svg>